<svg width="32" height="26" viewBox="0 0 32 26" fill="none" xmlns="http://www.w3.org/2000/svg">
<path d="M32 21.992V26.0013H0V22.0066C1.86127 19.5192 4.27721 17.5004 7.05572 16.1107C9.83423 14.721 12.8987 13.9987 16.0053 14.0013C22.544 14.0013 28.352 17.14 32 21.992ZM21.336 5.99996C21.336 7.41445 20.7741 8.771 19.7739 9.77119C18.7737 10.7714 17.4172 11.3333 16.0027 11.3333C14.5882 11.3333 13.2316 10.7714 12.2314 9.77119C11.2312 8.771 10.6693 7.41445 10.6693 5.99996C10.6693 4.58547 11.2312 3.22892 12.2314 2.22872C13.2316 1.22853 14.5882 0.666626 16.0027 0.666626C17.4172 0.666626 18.7737 1.22853 19.7739 2.22872C20.7741 3.22892 21.336 4.58547 21.336 5.99996Z" fill="#D1D5DB"/>
</svg>
